<svg id="Layer_1" data-name="Layer 1" xmlns="http://www.w3.org/2000/svg" viewBox="0 0 64 64"><defs><style>.cls-1{fill:none;stroke:#000;stroke-linecap:round;stroke-linejoin:round;stroke-width:3px;}</style></defs><title>Headphone</title><g id="Headphone"><rect class="cls-1" x="12.46" y="36.62" width="6.97" height="20.14" rx="2.22" ry="2.22"/><path class="cls-1" d="M52.75,19.23l-1.69,1.24-1.22.91a2,2,0,0,1-2.52-.61,20.16,20.16,0,0,0-30.38,0,2,2,0,0,1-2.52.61l-1.3-1L11.5,19.23c-.72-.5-.6-1.92.36-3a26.91,26.91,0,0,1,40.54,0C53.35,17.31,53.47,18.73,52.75,19.23Z"/><path class="cls-1" d="M12.46,55.75C7.79,55.75,4,51.69,4,46.69s3.79-9.06,8.46-9.06"/><rect class="cls-1" x="44.57" y="36.62" width="6.97" height="20.14" rx="2.22" ry="2.22" transform="translate(96.11 93.38) rotate(-180)"/><path class="cls-1" d="M51.54,55.75c4.67,0,8.46-4.06,8.46-9.06s-3.79-9.06-8.46-9.06"/><path class="cls-1" d="M6.39,40.27a34.1,34.1,0,0,1,6.72-19.85"/><path class="cls-1" d="M57.66,39.89a34.89,34.89,0,0,0-6.6-19.42"/></g></svg>