<?xml version="1.0" encoding="utf-8"?>
<svg width="99px" height="120px" viewBox="0 0 99 120" version="1.1" xmlns:xlink="http://www.w3.org/1999/xlink" xmlns="http://www.w3.org/2000/svg">
  <g id="Logo">
    <path d="M57.3612 106.681C37.4134 111.023 17.6524 98.3289 13.3089 78.3823C8.9666 58.4351 21.6612 38.6734 41.6085 34.3305C43.1827 33.9885 44.7365 34.9868 45.0792 36.5604C45.4219 38.1346 44.4241 39.6885 42.8493 40.0311C26.0456 43.6893 15.352 60.3371 19.0095 77.1408C22.6682 93.9439 39.3155 104.639 56.1198 100.98C72.9235 97.3212 83.6183 80.674 79.9596 63.8703C79.6169 62.2967 80.6146 60.7429 82.1895 60.3996C83.7637 60.0575 85.3169 61.0553 85.6596 62.6295C90.0031 82.5761 77.3072 102.338 57.3612 106.681" id="Fill-4" fill="#1C0A41" fill-rule="evenodd" stroke="none" />
    <path d="M60.0019 118.812C33.3656 124.611 6.97732 107.659 1.17773 81.0229C-4.62124 54.3872 12.3309 27.9984 38.9672 22.1994C40.5414 21.8561 42.0953 22.8551 42.4373 24.4293C42.7806 26.0035 41.7823 27.5567 40.208 27.9C16.7153 33.0148 1.76351 56.2887 6.87835 79.7821C11.9932 103.275 35.267 118.227 58.761 113.111C82.2544 107.996 97.2056 84.7225 92.0901 61.2297C91.7474 59.6555 92.7458 58.1016 94.32 57.7584C95.8948 57.4163 97.448 58.414 97.7913 59.9882C103.59 86.6245 86.6369 113.013 60.0019 118.812" id="Fill-5" fill="#1C0A41" fill-rule="evenodd" stroke="none" />
    <path d="M64.7629 74.6938C62.3493 74.6938 60.3736 72.9093 60.3736 70.727L60.3736 4.27608C60.3736 2.09443 62.3493 0.309278 64.7629 0.309278C67.1771 0.309278 69.1528 2.09443 69.1528 4.27608L69.1528 70.727C69.1528 72.9093 67.1771 74.6938 64.7629 74.6938" id="Fill-6" fill="#1C0A41" fill-rule="evenodd" stroke="none" />
    <path d="M86.7619 25.2668C85.1134 27.0303 82.3212 27.1243 80.5577 25.4753L61.7604 7.89959C59.9969 6.25052 59.9029 3.45897 61.552 1.69546C63.2004 -0.0680412 65.9926 -0.162062 67.7555 1.48701L86.5534 19.0627C88.3169 20.7118 88.4109 23.5033 86.7619 25.2668" id="Fill-7" fill="#1C0A41" fill-rule="evenodd" stroke="none" />
    <path d="M87.7324 20.9307C87.7324 20.9301 87.7324 20.9295 87.7324 20.9289C87.7324 20.9295 87.7324 20.9301 87.7324 20.9307M87.7318 20.927C87.5115 20.2361 87.1181 19.5909 86.5534 19.0627L68.4637 2.14887C68.4625 2.14701 68.4612 2.14577 68.46 2.14392L86.5553 19.0627C87.1194 19.5909 87.5122 20.2361 87.7318 20.927" id="Fill-8" fill="#E4E4DF" fill-rule="evenodd" stroke="none" />
    <path d="M60.3748 7.55567L60.3748 4.79505C60.386 5.24784 60.4652 5.69876 60.6136 6.1299C60.6 6.1701 60.587 6.20969 60.5753 6.2499L60.5722 6.25918C60.535 6.38041 60.5035 6.50289 60.4769 6.62598L60.4577 6.71938C60.4386 6.81959 60.4237 6.92041 60.4113 7.02124L60.3946 7.17526C60.3872 7.26124 60.3835 7.34784 60.381 7.43505L60.3748 7.55567M68.4637 2.14887L67.7555 1.48701C67.6837 1.41959 67.6101 1.35588 67.5353 1.29402C67.6107 1.35526 67.6849 1.41959 67.7573 1.48701L68.46 2.14392C68.4612 2.14577 68.4625 2.14701 68.4637 2.14887" id="Fill-9" fill="#5C4488" fill-rule="evenodd" stroke="none" />
    <path d="M87.7021 23.6963C87.4775 23.0388 87.0959 22.4252 86.5553 21.9204L67.7573 4.34412C67.4821 4.0868 67.1796 3.87773 66.8635 3.70454L66.8412 3.69278C66.7299 3.6334 66.6173 3.57835 66.5029 3.52887L66.4305 3.49856C66.3303 3.45773 66.2301 3.42062 66.128 3.38784L65.9981 3.34701C65.9122 3.32165 65.8243 3.29876 65.7365 3.27959C65.6784 3.26598 65.6196 3.25361 65.5602 3.24247C65.4817 3.22825 65.4037 3.21649 65.3251 3.2066C65.259 3.19794 65.1928 3.19052 65.1254 3.18495C65.0468 3.17814 64.9676 3.17505 64.8891 3.17258L64.7647 3.16639L64.6936 3.1701C64.6076 3.17134 64.5235 3.17691 64.4381 3.18309C64.3806 3.18742 64.3237 3.19052 64.2668 3.1967C64.166 3.20783 64.0652 3.22515 63.9649 3.24309L63.8579 3.26227C63.0025 3.43979 62.1922 3.86969 61.5532 4.55258C61.1165 5.01959 60.8066 5.55959 60.6136 6.1299C60.4652 5.69876 60.386 5.24784 60.3748 4.79505L60.3748 4.69856L60.381 4.57732C60.3835 4.49072 60.3872 4.40412 60.3946 4.31753L60.4113 4.16412C60.4237 4.06268 60.4386 3.96247 60.4577 3.86227L60.4769 3.76887C60.5035 3.64577 60.535 3.5233 60.5722 3.40206L60.5753 3.39216C60.7639 2.77732 61.0862 2.19464 61.5532 1.69546C62.1922 1.01258 63.0025 0.58268 63.8579 0.405155L63.9649 0.385979C64.0652 0.368041 64.166 0.350722 64.2668 0.339588C64.3237 0.333402 64.3806 0.330309 64.4381 0.325979C64.5235 0.319794 64.6076 0.314227 64.6936 0.312371L64.7647 0.309278L64.8891 0.315464C64.9676 0.317938 65.0468 0.321031 65.1254 0.327216C65.1928 0.333402 65.259 0.340825 65.3251 0.349485C65.4037 0.359381 65.4817 0.371134 65.5602 0.385361C65.6196 0.396495 65.6784 0.408866 65.7365 0.422474C65.8243 0.441649 65.9122 0.464536 65.9981 0.489897L66.128 0.530103C66.2301 0.563505 66.3303 0.600619 66.4305 0.641443L66.5029 0.671753C66.6173 0.721237 66.7299 0.77567 66.8412 0.83567L66.8635 0.847423C67.0967 0.974845 67.3225 1.12268 67.5353 1.29402C67.6101 1.35588 67.6837 1.41959 67.7555 1.48701L68.4637 2.14887L86.5534 19.0627C87.1181 19.5909 87.5115 20.2361 87.7318 20.927C87.7318 20.9276 87.7318 20.9282 87.7324 20.9289C87.7324 20.9295 87.7324 20.9301 87.7324 20.9307C88.0163 21.827 88.007 22.8012 87.7021 23.6963" id="Fill-10" fill="#1C0A41" fill-rule="evenodd" stroke="none" />
    <path d="M69.1528 70.5056C69.1528 80.4594 61.0837 88.5285 51.1299 88.5285C41.1761 88.5285 33.107 80.4594 33.107 70.5056C33.107 60.5518 41.1761 52.4827 51.1299 52.4827C61.0837 52.4827 69.1528 60.5518 69.1528 70.5056" id="Fill-11" fill="#1C0A41" fill-rule="evenodd" stroke="none" />
    <path d="M64.8835 70.5056C64.8835 78.1021 58.7258 84.2598 51.1299 84.2598C43.5334 84.2598 37.3757 78.1021 37.3757 70.5056C37.3757 62.9097 43.5334 56.752 51.1299 56.752C58.7258 56.752 64.8835 62.9097 64.8835 70.5056" id="Fill-12" fill="#FFFFFE" fill-rule="evenodd" stroke="none" />
    <path d="M50.9926 88.5285C41.0381 88.5285 32.9691 80.4594 32.9691 70.5056C32.9691 60.5518 41.0381 52.4827 50.9926 52.4827C41.1019 52.5575 33.107 60.5981 33.107 70.5056C33.107 80.413 41.1019 88.4536 50.9926 88.5278L50.9926 88.5285" id="Fill-18" fill="#D6D5D0" fill-rule="evenodd" stroke="none" />
  </g>
</svg>