<svg id="Layer_1" data-name="Layer 1" xmlns="http://www.w3.org/2000/svg" viewBox="0 0 64 64"><defs><style>.cls-1{fill:none;stroke:#000;stroke-linecap:round;stroke-linejoin:round;stroke-width:3px;}</style></defs><title>Mixer</title><g id="Mixer"><line class="cls-1" x1="15" y1="54.5" x2="15" y2="24.83"/><line class="cls-1" x1="15" y1="17.83" x2="15" y2="9.5"/><line class="cls-1" x1="49" y1="54.5" x2="49" y2="24.83"/><line class="cls-1" x1="49" y1="17.83" x2="49" y2="9.5"/><path class="cls-1" d="M21,21.33a3.52,3.52,0,0,1-3.5,3.5h-5A3.5,3.5,0,0,1,9,21.33a3.52,3.52,0,0,1,3.5-3.5h5A3.5,3.5,0,0,1,21,21.33Z"/><path class="cls-1" d="M55,21.33a3.52,3.52,0,0,1-3.5,3.5h-5a3.5,3.5,0,0,1-3.5-3.5,3.52,3.52,0,0,1,3.5-3.5h5A3.5,3.5,0,0,1,55,21.33Z"/><line class="cls-1" x1="32" y1="39.16" x2="32" y2="9.5"/><line class="cls-1" x1="32" y1="54.5" x2="32" y2="46.16"/><path class="cls-1" d="M38,42.66a3.52,3.52,0,0,1-3.5,3.5h-5a3.49,3.49,0,0,1-2.47-6,3.46,3.46,0,0,1,2.47-1h5A3.51,3.51,0,0,1,38,42.66Z"/></g></svg>