<svg id="Layer_1" data-name="Layer 1" xmlns="http://www.w3.org/2000/svg" viewBox="0 0 64 64"><defs><style>.cls-1{fill:none;stroke:#000;stroke-linecap:round;stroke-linejoin:round;stroke-width:3px;}</style></defs><title>Volume</title><g id="Volume"><path class="cls-1" d="M35.43,16.68V47.32a2.8,2.8,0,0,1-4.36,2.33l-16.47-11a2.8,2.8,0,0,1-1.25-2.33V27.69a2.8,2.8,0,0,1,1.25-2.33l16.47-11A2.8,2.8,0,0,1,35.43,16.68Z"/><path class="cls-1" d="M12.38,38.41H10.1A2.49,2.49,0,0,1,7.66,35.9V28.1a2.49,2.49,0,0,1,2.44-2.51h2.28"/><path class="cls-1" d="M36.93,25.75c2.89,0,5.23,2.8,5.23,6.25s-2.34,6.25-5.23,6.25"/><path class="cls-1" d="M43.13,20.25a14.91,14.91,0,0,1,0,24.13"/><path class="cls-1" d="M46.88,13.44a22.94,22.94,0,0,1,0,37.13"/></g></svg>