<svg id="Layer_1" data-name="Layer 1" xmlns="http://www.w3.org/2000/svg" viewBox="0 0 64 64"><defs><style>.cls-1{fill:none;stroke:#000;stroke-linecap:round;stroke-linejoin:round;stroke-width:3px;}</style></defs><title>Piano</title><g id="Piano"><path class="cls-1" d="M50.14,57H13.86a5.86,5.86,0,0,1-5.7-6V13a5.86,5.86,0,0,1,5.7-6H50.14a5.86,5.86,0,0,1,5.7,6V51A5.86,5.86,0,0,1,50.14,57Z"/><line class="cls-1" x1="8.17" y1="19.62" x2="55.83" y2="19.62"/><path class="cls-1" d="M27.67,20.13V42.52a1.51,1.51,0,0,1-1.39,1.6H20.39A1.51,1.51,0,0,1,19,42.52V20.13"/><path class="cls-1" d="M45,20.13V42.52a1.51,1.51,0,0,1-1.39,1.6H37.73a1.51,1.51,0,0,1-1.39-1.6V20.13"/><line class="cls-1" x1="23.33" y1="44.12" x2="23.33" y2="55.86"/><line class="cls-1" x1="40.67" y1="44.12" x2="40.67" y2="55.86"/></g></svg>