<svg id="Layer_1" data-name="Layer 1" xmlns="http://www.w3.org/2000/svg" viewBox="0 0 64 64"><defs><style>.cls-1,.cls-2{fill:none;stroke:#000;stroke-linejoin:round;stroke-width:3px;}.cls-1{stroke-linecap:round;}.cls-2{stroke-linecap:square;}</style></defs><title>Sound Wave</title><g id="Sound_Wave" data-name="Sound Wave"><path class="cls-1" d="M3.75,31.66H8a3,3,0,0,0,3-3V23.28a3,3,0,0,1,3-3h0a3,3,0,0,1,3,3V36"/><path class="cls-2" d="M23,12.49V43.41a3,3,0,0,1-3,3h0a3,3,0,0,1-3-3V28.57"/><path class="cls-2" d="M23,38.08V7.16a3,3,0,0,1,3-3h0a3,3,0,0,1,3,3v22"/><path class="cls-2" d="M35,27.16V56.84a3,3,0,0,1-3,3h0a3,3,0,0,1-3-3V29.66"/><path class="cls-2" d="M35,28.66V17.24a3,3,0,0,1,3-3h0a3,3,0,0,1,3,3V31.16"/><path class="cls-2" d="M47,32.19v5.28a3,3,0,0,1-3,3h0a3,3,0,0,1-3-3v-11"/><path class="cls-1" d="M60.25,31.7H56a3,3,0,0,1-3-3V26.33a3,3,0,0,0-3-3h0a3,3,0,0,0-3,3V32.5"/></g></svg>